<?xml version="1.0" encoding="UTF-8"?>
<svg id="_레이어_1" data-name="레이어 1" xmlns="http://www.w3.org/2000/svg" viewBox="0 0 2449.43 407.34">
  <defs>
    <style>
      .cls-1 {
        fill: #c5e8fa;
        stroke: #64ccf5;
        stroke-miterlimit: 10;
        stroke-width: 3px;
      }
    </style>
  </defs>
  <path class="cls-1" d="M29.52,168.75h0c2.13,2.34,3.3,5.38,3.3,8.54v186.97c0,7,5.68,12.68,12.68,12.68h244.48c7,0,12.68-5.68,12.68-12.68v-128.91c0-7,5.67-12.67,12.66-12.68l237.86-.38c7-.01,12.66-5.69,12.66-12.68V55.11c0-3.44,1.4-6.73,3.87-9.12l42.34-40.93c2.36-2.29,5.52-3.56,8.81-3.56h206.89c3.22,0,6.32,1.23,8.67,3.43l67.06,62.85c4.89,4.58,12.49,4.57,17.37-.02l66.66-62.8c2.35-2.22,5.46-3.45,8.7-3.45h80.82c7,0,12.68,5.68,12.68,12.68v157.58c0,7,5.68,12.68,12.68,12.68h87.31c7,0,12.68-5.68,12.68-12.68V17.09c0-7,5.68-12.68,12.68-12.68h61.59c3.3,0,6.47,1.29,8.83,3.58l122.33,118.8c2.37,2.31,5.56,3.59,8.86,3.58l1018.52-1.21c7.02-.02,12.71,5.67,12.71,12.68v3.38c0,6.97-5.63,12.64-12.6,12.68l-1034.24,3.42c-3.42.02-6.71-1.34-9.11-3.78l-122.24-124c-2.38-2.42-5.64-3.78-9.03-3.78h-17.56c-7,0-12.68,5.68-12.68,12.68v157.84c0,7-5.68,12.68-12.68,12.68h-141c-7,0-12.68-5.68-12.68-12.68V43.29c0-7-5.68-12.68-12.68-12.68h-45c-3.36,0-6.59,1.34-8.97,3.71l-77.96,77.96c-4.95,4.95-12.98,4.95-17.93,0l-78.58-78.58c-2.38-2.38-5.6-3.71-8.97-3.71h-180.54c-3.36,0-6.59,1.34-8.97,3.71l-26.98,26.98c-2.38,2.38-3.71,5.6-3.71,8.97v166.15c0,7-5.68,12.68-12.68,12.68h-235.85c-7,0-12.68,5.68-12.68,12.68v132.01c0,7-5.68,12.68-12.68,12.68H20.14c-7,0-12.68-5.68-12.68-12.68v-215.87c0-4.7-8.5-28.1-5.2-30.27,4.85-3.18,22.62,16.64,27.26,21.73Z"/>
</svg>